<svg width="40" height="40" viewBox="0 0 40 40" fill="none" xmlns="http://www.w3.org/2000/svg">
<path d="M30 17.75C29.59 17.75 29.25 17.41 29.25 17V15C29.25 12.42 27.58 10.75 25 10.75H15C12.42 10.75 10.75 12.42 10.75 15V17C10.75 17.41 10.41 17.75 10 17.75C9.59 17.75 9.25 17.41 9.25 17V15C9.25 11.56 11.56 9.25 15 9.25H25C28.44 9.25 30.75 11.56 30.75 15V17C30.75 17.41 30.41 17.75 30 17.75Z" fill="#E2F0FE"/>
<path d="M25 30.75H15C11.56 30.75 9.25 28.44 9.25 25V23C9.25 22.59 9.59 22.25 10 22.25C10.41 22.25 10.75 22.59 10.75 23V25C10.75 27.58 12.42 29.25 15 29.25H25C27.58 29.25 29.25 27.58 29.25 25V23C29.25 22.59 29.59 22.25 30 22.25C30.41 22.25 30.75 22.59 30.75 23V25C30.75 28.44 28.44 30.75 25 30.75Z" fill="#E2F0FE"/>
<path d="M30 20.75H10C9.59 20.75 9.25 20.41 9.25 20C9.25 19.59 9.59 19.25 10 19.25H30C30.41 19.25 30.75 19.59 30.75 20C30.75 20.41 30.41 20.75 30 20.75Z" fill="#E2F0FE"/>
<path d="M24.5 17H15.5C15.22 17 15 16.78 15 16.5V14.5C15 13.67 15.67 13 16.5 13H23.5C24.33 13 25 13.67 25 14.5V16.5C25 16.78 24.78 17 24.5 17Z" fill="#E2F0FE"/>
<path d="M24.5 23H15.5C15.22 23 15 23.22 15 23.5V25.5C15 26.33 15.67 27 16.5 27H23.5C24.32 27 25 26.33 25 25.5V23.5C25 23.22 24.78 23 24.5 23Z" fill="#E2F0FE"/>
</svg>
