<svg width="31" height="24" viewBox="0 0 31 24" fill="none" xmlns="http://www.w3.org/2000/svg">
<g opacity="0.9">
<path opacity="0.9" d="M14.25 3C14.8023 3 15.25 3.44772 15.25 4V6C15.25 6.55228 14.8023 7 14.25 7H7.25C6.69772 7 6.25 6.55228 6.25 6V4C6.25 3.44772 6.69772 3 7.25 3H14.25ZM18.25 17C18.8023 17 19.25 17.4477 19.25 18V20C19.25 20.5523 18.8023 21 18.25 21H7.25C6.69772 21 6.25 20.5523 6.25 20V18C6.25 17.4477 6.69772 17 7.25 17H18.25Z" fill="#9295A4"/>
<path d="M25.25 13V11C25.25 10.4477 24.8023 10 24.25 10H7.25C6.69772 10 6.25 10.4477 6.25 11V13C6.25 13.5523 6.69771 14 7.25 14H24.25C24.8023 14 25.25 13.5523 25.25 13Z" fill="#9295A4"/>
</g>
</svg>
